
<svg version="1.1" xmlns="http://www.w3.org/2000/svg" xmlns:xlink="http://www.w3.org/1999/xlink"
	viewBox="123 0 595 595"
	 xml:space="preserve">
<g id="Layer_2">
</g>
<g id="Layer_1">
	<g>
		<g>
			<path fill="#FFFFFF" d="M123.305,0v595.275H718.58V0H123.305z M346.534,409.256h-59.527V230.671h59.527V409.256z
				 M316.771,215.789c-16.37,0-29.764-13.394-29.764-29.764s13.394-29.764,29.764-29.764s29.764,13.394,29.764,29.764
				S333.141,215.789,316.771,215.789z M554.883,409.256h-59.528V305.082c0,0,0-29.765-29.764-29.765
				c-29.765,0-29.765,29.765-29.765,29.765v104.174h-59.527V230.671h59.527v23.812c8.93-13.394,22.323-23.812,44.646-23.812
				c74.41,0,74.41,74.411,74.41,74.411V409.256z"/>
		</g>
	</g>
</g>
</svg>
